<?xml version="1.0" encoding="utf-8"?>
<!-- Generator: Adobe Illustrator 24.1.1, SVG Export Plug-In . SVG Version: 6.00 Build 0)  -->
<svg version="1.1" id="Layer_1" xmlns="http://www.w3.org/2000/svg" xmlns:xlink="http://www.w3.org/1999/xlink" x="0px" y="0px"
	 viewBox="0 0 500 500" style="enable-background:new 0 0 500 500;" xml:space="preserve">
<g>
	<path d="M403.65,167.45h-29.7v-37.23c0-68.39-55.73-124.09-124.17-124.09c-68.39,0-124.09,55.69-124.09,124.09v37.23H95.91
		c-23.23,0-42.27,19.02-42.27,42.24v241.58c0,23.59,19.04,42.6,42.27,42.6h307.74c23.59,0,42.72-19.02,42.72-42.6V209.69
		C446.36,186.47,427.23,167.45,403.65,167.45z M181.78,130.22c0-37.38,30.45-67.99,68-67.99c37.5,0,68,30.61,68,67.99v37.23h-136
		V130.22z M272.74,382.04v61.73c0,2.65-2.23,4.52-4.81,4.52h-29.65c-2.23,0-4.37-1.87-4.37-4.52v-61.73
		c-20.29-7.8-34.82-27.31-34.82-50.49c0-29.85,24.26-54.15,54.22-54.15c29.92,0,54.22,24.3,54.22,54.15
		C307.51,354.74,292.94,374.24,272.74,382.04z"/>
</g>
</svg>
